# Blender 4.4.3
# www.blender.org
mtllib blackboard.mtl
o Obj_BlackBoard
v -2.592540 -0.389595 -0.087896
v -2.592540 1.210405 -0.087896
v 2.407460 -0.389595 -0.087896
v 2.407460 1.210405 -0.087896
v -2.592540 -0.389595 0.027126
v -2.592540 1.210405 0.027126
v 2.407460 -0.389595 0.027126
v 2.407460 1.210405 0.027126
v 2.356894 1.159892 0.027126
v 2.356894 -0.348275 0.027126
v -2.541973 1.159892 0.027126
v -2.541973 -0.348275 0.027126
v 2.356894 1.159892 -0.021134
v 2.356894 -0.348275 -0.021134
v -2.541973 1.159892 -0.021134
v -2.541973 -0.348275 -0.021134
v 2.407460 -0.300556 -0.087896
v 2.356894 -0.300556 0.027126
v 2.407460 -0.300556 0.027126
v -2.592540 -0.300556 0.027126
v -2.541973 -0.300556 -0.021134
v -2.541973 -0.300556 0.027126
v -2.592540 -0.300556 -0.087896
v 2.356894 -0.300556 -0.021134
v 2.407460 -0.300556 0.135906
v 2.407460 -0.389595 0.135906
v -2.592540 -0.300556 0.135906
v -2.592540 -0.389595 0.135906
v 2.356894 -0.300556 0.135906
v 2.356894 -0.348275 0.135906
v -2.541973 -0.300556 0.135906
v -2.541973 -0.348275 0.135906
v -0.249049 -0.492944 0.027595
v -0.249049 -0.394071 0.027595
v -0.098079 -0.492944 0.027595
v -0.098079 -0.394071 0.027595
v -0.249049 -0.492944 0.146439
v -0.249049 -0.394071 0.146439
v -0.098079 -0.492944 0.146439
v -0.098079 -0.394071 0.146439
v -0.249049 -0.480959 0.027595
v -0.098079 -0.480959 0.027595
v -0.098079 -0.480959 0.146439
v -0.249049 -0.480959 0.146439
v -0.098079 -0.480959 0.156188
v -0.098079 -0.492944 0.156188
v -0.249049 -0.480959 0.156188
v -0.249049 -0.492944 0.156188
v -0.089862 -0.492944 0.027595
v -0.089862 -0.394071 0.027595
v 0.061109 -0.492944 0.027595
v 0.061109 -0.394071 0.027595
v -0.089862 -0.492944 0.146439
v -0.089862 -0.394071 0.146439
v 0.061109 -0.492944 0.146439
v 0.061109 -0.394071 0.146439
v -0.089862 -0.480959 0.027595
v 0.061109 -0.480959 0.027595
v 0.061109 -0.480959 0.146439
v -0.089862 -0.480959 0.146439
v 0.061109 -0.480959 0.156188
v 0.061109 -0.492944 0.156188
v -0.089862 -0.480959 0.156188
v -0.089862 -0.492944 0.156188
v -0.568768 -0.262201 0.006215
v -0.568768 -0.281456 -0.003966
v -0.772178 -0.262201 0.006215
v -0.568768 -0.262201 -0.003966
v -0.568768 -0.262201 0.125059
v -0.772178 -0.262201 -0.003966
v -0.772178 -0.262201 0.125059
v -0.772178 -0.281456 -0.003966
v -0.568768 -0.281456 0.006215
v -0.772178 -0.281456 0.006215
v -0.772178 -0.281456 0.125059
v -0.568768 -0.281456 0.125059
v -0.772178 -0.281456 0.134809
v -0.772178 -0.262201 0.134809
v -0.568768 -0.281456 0.134809
v -0.568768 -0.262201 0.134809
v -0.606993 -0.338538 0.044441
v -0.568768 -0.300312 0.006215
v -0.587880 -0.333417 0.025328
v -0.573889 -0.319425 0.011336
v -0.733952 -0.338538 0.044441
v -0.772178 -0.300312 0.006215
v -0.753065 -0.333417 0.025328
v -0.767056 -0.319425 0.011336
v -0.606993 -0.338538 0.086833
v -0.568768 -0.300312 0.125059
v -0.587880 -0.333417 0.105946
v -0.573889 -0.319425 0.119938
v -0.733952 -0.338538 0.086833
v -0.772178 -0.300312 0.125059
v -0.753065 -0.333417 0.105946
v -0.767056 -0.319425 0.119938
v -0.782335 -0.281456 0.006215
v -0.782335 -0.262201 0.006215
v -0.782335 -0.281456 0.125059
v -0.782335 -0.262201 0.125059
v -0.558539 -0.281456 0.006215
v -0.558539 -0.262201 0.006215
v -0.558539 -0.281456 0.125059
v -0.558539 -0.262201 0.125059
v -0.684554 -0.262201 0.006215
v -0.684554 -0.262201 0.125059
v -0.684554 -0.281456 -0.003966
v -0.684554 -0.262201 -0.003966
v -0.684554 -0.281456 0.125059
v -0.684554 -0.281456 0.006215
v -0.684554 -0.262201 0.134809
v -0.684554 -0.281456 0.134809
v -0.680891 -0.338538 0.044441
v -0.682722 -0.333417 0.025328
v -0.684063 -0.319425 0.011336
v -0.684554 -0.300312 0.006215
v -0.680891 -0.338538 0.086833
v -0.682722 -0.333417 0.105946
v -0.684063 -0.319425 0.119938
v -0.684554 -0.300312 0.125059
v -0.659568 -0.262201 0.006215
v -0.659568 -0.281456 -0.003966
v -0.659568 -0.262201 -0.003966
v -0.659568 -0.281456 0.006215
v -0.662257 -0.333417 0.025328
v -0.660289 -0.319425 0.011336
v -0.659568 -0.300312 0.006215
v -0.664945 -0.338538 0.086833
v -0.659568 -0.262201 0.125059
v -0.659568 -0.281456 0.125059
v -0.659568 -0.262201 0.134809
v -0.659568 -0.281456 0.134809
v -0.664945 -0.338538 0.044441
v -0.662257 -0.333417 0.105946
v -0.660289 -0.319425 0.119938
v -0.659568 -0.300312 0.125059
v -0.659568 -0.256990 0.125059
v -0.684554 -0.256990 0.125059
v -0.684554 -0.256990 0.006215
v -0.659568 -0.256990 0.006215
v -0.782335 -0.281456 0.006215
v -0.772178 -0.281456 -0.003966
v -0.779360 -0.281456 -0.000984
v -0.772178 -0.262201 -0.003966
v -0.782335 -0.262201 0.006215
v -0.779360 -0.262201 -0.000984
v -0.772178 -0.281456 0.134809
v -0.782335 -0.281456 0.125059
v -0.779360 -0.281456 0.131953
v -0.782335 -0.262201 0.125059
v -0.772178 -0.262201 0.134809
v -0.779360 -0.262201 0.131953
v -0.568768 -0.281456 -0.003966
v -0.558539 -0.281456 0.006215
v -0.561535 -0.281456 -0.000984
v -0.558539 -0.262201 0.006215
v -0.568768 -0.262201 -0.003966
v -0.561535 -0.262201 -0.000984
v -0.558539 -0.281456 0.125059
v -0.568768 -0.281456 0.134809
v -0.561535 -0.281456 0.131953
v -0.568768 -0.262201 0.134809
v -0.558539 -0.262201 0.125059
v -0.561535 -0.262201 0.131953
v 2.407460 -0.300556 0.158605
v 2.407460 -0.389595 0.158605
v -2.592540 -0.300556 0.158605
v -2.592540 -0.389595 0.158605
v 2.356894 -0.300556 0.158605
v 2.356894 -0.348275 0.158605
v -2.541973 -0.300556 0.158605
v -2.541973 -0.348275 0.158605
v -2.541973 -0.322664 0.135906
v 2.356894 -0.322664 0.135906
v -2.541973 -0.322664 0.158605
v 2.356894 -0.322664 0.158605
v -0.194986 -0.318856 0.102416
v -0.365669 -0.318856 0.102416
v 1.025303 -0.318856 0.050597
v 1.195986 -0.318856 0.050597
v 1.025303 -0.319975 0.044970
v 1.195986 -0.319975 0.044970
v 1.025303 -0.323163 0.040199
v 1.195986 -0.323163 0.040199
v 1.025303 -0.327933 0.037012
v 1.195986 -0.327933 0.037012
v 1.025303 -0.333560 0.035892
v 1.195986 -0.333560 0.035892
v 1.025303 -0.339188 0.037012
v 1.195986 -0.339188 0.037012
v 1.025303 -0.343958 0.040199
v 1.195986 -0.343958 0.040199
v 1.025303 -0.347146 0.044970
v 1.195986 -0.347146 0.044970
v 1.025303 -0.348265 0.050597
v 1.195986 -0.348265 0.050597
v 1.025303 -0.347146 0.056224
v 1.195986 -0.347146 0.056224
v 1.025303 -0.343958 0.060995
v 1.195986 -0.343958 0.060994
v 1.025303 -0.339188 0.064182
v 1.195986 -0.339188 0.064182
v 1.025303 -0.333560 0.065301
v 1.195986 -0.333560 0.065301
v 1.025303 -0.327933 0.064182
v 1.195986 -0.327933 0.064182
v 1.025303 -0.323163 0.060995
v 1.195986 -0.323163 0.060994
v 1.025303 -0.319975 0.056224
v 1.195986 -0.319975 0.056224
v -0.365669 -0.319975 0.096789
v -0.194986 -0.319975 0.096789
v -0.365669 -0.323163 0.092018
v -0.194986 -0.323163 0.092018
v -0.365669 -0.327933 0.088831
v -0.194986 -0.327933 0.088831
v -0.365669 -0.333560 0.087711
v -0.194986 -0.333560 0.087711
v -0.365669 -0.339188 0.088831
v -0.194986 -0.339188 0.088831
v -0.365669 -0.343958 0.092018
v -0.194986 -0.343958 0.092018
v -0.365669 -0.347146 0.096789
v -0.194986 -0.347146 0.096789
v -0.365669 -0.348265 0.102416
v -0.194986 -0.348265 0.102416
v -0.365669 -0.347146 0.108043
v -0.194986 -0.347146 0.108043
v -0.365669 -0.343958 0.112814
v -0.194986 -0.343958 0.112814
v -0.365669 -0.339188 0.116001
v -0.194986 -0.339188 0.116001
v -0.365669 -0.333560 0.117121
v -0.194986 -0.333560 0.117121
v -0.365669 -0.327933 0.116001
v -0.194986 -0.327933 0.116001
v -0.365669 -0.323163 0.112814
v -0.194986 -0.323163 0.112814
v -0.365669 -0.319975 0.108043
v -0.194986 -0.319975 0.108043
v -1.823323 -0.318856 0.070661
v -1.994006 -0.318856 0.070661
v -1.994006 -0.319975 0.065034
v -1.823323 -0.319975 0.065034
v -1.994006 -0.323163 0.060263
v -1.823323 -0.323163 0.060263
v -1.994006 -0.327933 0.057076
v -1.823323 -0.327933 0.057076
v -1.994006 -0.333560 0.055957
v -1.823323 -0.333560 0.055957
v -1.994006 -0.339188 0.057076
v -1.823323 -0.339188 0.057076
v -1.994006 -0.343958 0.060263
v -1.823323 -0.343958 0.060263
v -1.994006 -0.347146 0.065034
v -1.823323 -0.347146 0.065034
v -1.994006 -0.348265 0.070661
v -1.823323 -0.348265 0.070661
v -1.994006 -0.347146 0.076288
v -1.823323 -0.347146 0.076288
v -1.994006 -0.343958 0.081059
v -1.823323 -0.343958 0.081059
v -1.994006 -0.339188 0.084246
v -1.823323 -0.339188 0.084246
v -1.994006 -0.333560 0.085366
v -1.823323 -0.333560 0.085366
v -1.994006 -0.327933 0.084246
v -1.823323 -0.327933 0.084246
v -1.994006 -0.323163 0.081059
v -1.823323 -0.323163 0.081059
v -1.994006 -0.319975 0.076288
v -1.823323 -0.319975 0.076288
vn -0.0000 -0.0000 -1.0000
vn 1.0000 -0.0000 -0.0000
vn -0.0000 -0.0000 1.0000
vn -1.0000 -0.0000 -0.0000
vn -0.0000 -1.0000 -0.0000
vn -0.0000 1.0000 -0.0000
vn -0.0000 -0.9659 -0.2588
vn -0.0000 -0.7071 -0.7071
vn -0.0000 -0.2588 -0.9659
vn -0.2588 -0.9659 -0.0000
vn -0.7071 -0.7071 -0.0000
vn -0.9659 -0.2588 -0.0000
vn -0.0000 -0.9659 0.2588
vn -0.0000 -0.7071 0.7071
vn -0.0000 -0.2588 0.9659
vn 0.2588 -0.9659 -0.0000
vn 0.7071 -0.7071 -0.0000
vn 0.9659 -0.2588 -0.0000
vn -0.9242 -0.0000 -0.3819
vn -0.3835 -0.0000 -0.9236
vn -0.3695 -0.0000 0.9292
vn -0.9182 -0.0000 0.3962
vn 0.9232 -0.0000 -0.3842
vn 0.3812 -0.0000 -0.9245
vn 0.9171 -0.0000 0.3986
vn 0.3672 -0.0000 0.9301
vn -0.0000 0.1951 -0.9808
vn -0.0000 0.9808 -0.1951
vn -0.0000 0.5556 0.8315
vn -0.0000 0.8315 -0.5556
vn -0.0000 -0.5556 -0.8315
vn -0.0000 0.1951 0.9808
vn -0.0000 0.5556 -0.8315
vn -0.0000 -0.8315 -0.5556
vn -0.0000 -0.1951 0.9808
vn -0.0000 -0.9808 -0.1951
vn -0.0000 -0.5556 0.8315
vn -0.0000 -0.1951 -0.9808
vn -0.0000 -0.9808 0.1951
vn -0.0000 -0.8315 0.5556
vn -0.0000 0.9808 0.1951
vn -0.0000 0.8315 0.5556
vt 0.000000 0.000000
vt 0.812500 0.500000
vt 0.812500 1.000000
vt 0.750000 1.000000
vt 0.750000 0.500000
vt 0.341844 0.471731
vt 0.250000 0.490000
vt 0.158156 0.471731
vt 0.080294 0.419706
vt 0.028269 0.341844
vt 0.010000 0.250000
vt 0.028269 0.158156
vt 0.080294 0.080294
vt 0.158156 0.028269
vt 0.250000 0.010000
vt 0.341844 0.028269
vt 0.419706 0.080294
vt 0.471731 0.158156
vt 0.490000 0.250000
vt 0.471731 0.341844
vt 0.419706 0.419706
vt 1.000000 0.500000
vt 1.000000 1.000000
vt 0.937500 1.000000
vt 0.937500 0.500000
vt 0.750000 0.490000
vt 0.841844 0.471731
vt 0.919706 0.419706
vt 0.971731 0.341844
vt 0.990000 0.250000
vt 0.971731 0.158156
vt 0.919706 0.080294
vt 0.841844 0.028269
vt 0.750000 0.010000
vt 0.658156 0.028269
vt 0.580294 0.080294
vt 0.528269 0.158156
vt 0.510000 0.250000
vt 0.528269 0.341844
vt 0.580294 0.419706
vt 0.658156 0.471731
vt 0.187500 0.500000
vt 0.187500 1.000000
vt 0.125000 1.000000
vt 0.125000 0.500000
vt 0.875000 1.000000
vt 0.875000 0.500000
vt 0.687500 0.500000
vt 0.687500 1.000000
vt 0.625000 1.000000
vt 0.625000 0.500000
vt 0.250000 0.500000
vt 0.250000 1.000000
vt 0.562500 1.000000
vt 0.562500 0.500000
vt 0.312500 0.500000
vt 0.312500 1.000000
vt 0.500000 1.000000
vt 0.500000 0.500000
vt 0.375000 0.500000
vt 0.375000 1.000000
vt 0.437500 1.000000
vt 0.437500 0.500000
vt 0.062500 0.500000
vt 0.062500 1.000000
vt 0.000000 1.000000
vt 0.000000 0.500000
s 0
usemtl White
f 2/1/1 4/1/1 17/1/1 23/1/1
f 17/1/2 19/1/2 7/1/2 3/1/2
f 8/1/3 6/1/3 11/1/3 9/1/3
f 6/1/4 2/1/4 23/1/4 20/1/4
f 1/1/5 3/1/5 7/1/5 5/1/5
f 6/1/6 8/1/6 4/1/6 2/1/6
f 22/1/2 12/1/2 16/1/2 21/1/2
f 22/1/6 20/1/6 27/1/6 31/1/6
f 10/1/6 12/1/6 32/1/6 30/1/6
f 19/1/6 18/1/6 29/1/6 25/1/6
f 24/1/3 21/1/3 16/1/3 14/1/3
f 18/1/4 9/1/4 13/1/4 24/1/4
f 12/1/6 10/1/6 14/1/6 16/1/6
f 9/1/5 11/1/5 15/1/5 13/1/5
f 20/1/4 23/1/4 1/1/4 5/1/4
f 13/1/3 15/1/3 21/1/3 24/1/3
f 23/1/1 17/1/1 3/1/1 1/1/1
f 19/1/3 8/1/3 9/1/3 18/1/3
f 10/1/4 18/1/4 24/1/4 14/1/4
f 4/1/2 8/1/2 19/1/2 17/1/2
f 6/1/3 20/1/3 22/1/3 11/1/3
f 11/1/2 22/1/2 21/1/2 15/1/2
f 31/1/6 27/1/6 167/1/6 171/1/6
f 26/1/2 25/1/2 165/1/2 166/1/2
f 28/1/5 26/1/5 166/1/5 168/1/5
f 5/1/5 7/1/5 26/1/5 28/1/5
f 7/1/2 19/1/2 25/1/2 26/1/2
f 12/1/2 22/1/2 31/1/2 32/1/2
f 18/1/4 10/1/4 30/1/4 29/1/4
f 20/1/4 5/1/4 28/1/4 27/1/4
f 41/1/1 42/1/1 35/1/1 33/1/1
f 42/1/2 43/1/2 39/1/2 35/1/2
f 44/1/4 37/1/4 48/1/4 47/1/4
f 44/1/4 41/1/4 33/1/4 37/1/4
f 33/1/5 35/1/5 39/1/5 37/1/5
f 38/1/6 40/1/6 36/1/6 34/1/6
f 38/1/4 34/1/4 41/1/4 44/1/4
f 40/1/3 38/1/3 44/1/3 43/1/3
f 36/1/2 40/1/2 43/1/2 42/1/2
f 34/1/1 36/1/1 42/1/1 41/1/1
f 45/1/3 47/1/3 48/1/3 46/1/3
f 43/1/6 44/1/6 47/1/6 45/1/6
f 37/1/5 39/1/5 46/1/5 48/1/5
f 39/1/2 43/1/2 45/1/2 46/1/2
f 57/1/1 58/1/1 51/1/1 49/1/1
f 58/1/2 59/1/2 55/1/2 51/1/2
f 60/1/4 53/1/4 64/1/4 63/1/4
f 60/1/4 57/1/4 49/1/4 53/1/4
f 49/1/5 51/1/5 55/1/5 53/1/5
f 54/1/6 56/1/6 52/1/6 50/1/6
f 54/1/4 50/1/4 57/1/4 60/1/4
f 56/1/3 54/1/3 60/1/3 59/1/3
f 52/1/2 56/1/2 59/1/2 58/1/2
f 50/1/1 52/1/1 58/1/1 57/1/1
f 61/1/3 63/1/3 64/1/3 62/1/3
f 59/1/6 60/1/6 63/1/6 61/1/6
f 53/1/5 55/1/5 62/1/5 64/1/5
f 55/1/2 59/1/2 61/1/2 62/1/2
f 121/1/6 65/1/6 68/1/6 123/1/6
f 77/1/6 78/1/6 151/1/6 147/1/6
f 80/1/6 79/1/6 160/1/6 162/1/6
f 103/1/6 104/1/6 163/1/6 159/1/6
f 105/1/6 67/1/6 71/1/6 106/1/6
f 86/1/4 94/1/4 75/1/4 74/1/4
f 116/1/1 86/1/1 74/1/1 110/1/1
f 107/1/1 72/1/1 70/1/1 108/1/1
f 136/1/3 90/1/3 76/1/3 130/1/3
f 117/1/5 93/1/5 85/1/5 113/1/5
f 132/1/3 79/1/3 80/1/3 131/1/3
f 130/1/5 76/1/5 79/1/5 132/1/5
f 106/1/6 71/1/6 78/1/6 111/1/6
f 71/1/6 67/1/6 98/1/6 100/1/6
f 113/1/7 85/1/7 87/1/7 114/1/7
f 114/1/8 87/1/8 88/1/8 115/1/8
f 115/1/9 88/1/9 86/1/9 116/1/9
f 85/1/10 93/1/10 95/1/10 87/1/10
f 87/1/11 95/1/11 96/1/11 88/1/11
f 88/1/12 96/1/12 94/1/12 86/1/12
f 128/1/13 89/1/13 91/1/13 134/1/13
f 134/1/14 91/1/14 92/1/14 135/1/14
f 135/1/15 92/1/15 90/1/15 136/1/15
f 89/1/16 81/1/16 83/1/16 91/1/16
f 91/1/17 83/1/17 84/1/17 92/1/17
f 92/1/18 84/1/18 82/1/18 90/1/18
f 90/1/2 82/1/2 73/1/2 76/1/2
f 102/1/6 101/1/6 154/1/6 156/1/6
f 110/1/5 74/1/5 72/1/5 107/1/5
f 100/1/6 99/1/6 148/1/6 150/1/6
f 97/1/4 99/1/4 100/1/4 98/1/4
f 75/1/5 77/1/5 147/1/5 149/1/5 148/1/5 99/1/5
f 70/1/6 72/1/6 142/1/6 144/1/6
f 67/1/6 70/1/6 144/1/6 146/1/6 145/1/6 98/1/6
f 78/1/6 71/1/6 100/1/6 150/1/6 152/1/6 151/1/6
f 74/1/5 75/1/5 99/1/5 97/1/5
f 66/1/6 68/1/6 157/1/6 153/1/6
f 72/1/5 74/1/5 97/1/5 141/1/5 143/1/5 142/1/5
f 79/1/5 76/1/5 103/1/5 159/1/5 161/1/5 160/1/5
f 103/1/2 101/1/2 102/1/2 104/1/2
f 68/1/6 65/1/6 102/1/6 156/1/6 158/1/6 157/1/6
f 65/1/6 69/1/6 104/1/6 102/1/6
f 73/1/5 66/1/5 153/1/5 155/1/5 154/1/5 101/1/5
f 76/1/5 73/1/5 101/1/5 103/1/5
f 69/1/6 80/1/6 162/1/6 164/1/6 163/1/6 104/1/6
f 124/1/5 110/1/5 107/1/5 122/1/5
f 96/1/15 119/1/15 120/1/15 94/1/15
f 95/1/14 118/1/14 119/1/14 96/1/14
f 93/1/13 117/1/13 118/1/13 95/1/13
f 126/1/9 115/1/9 116/1/9 127/1/9
f 125/1/8 114/1/8 115/1/8 126/1/8
f 133/1/7 113/1/7 114/1/7 125/1/7
f 129/1/6 106/1/6 111/1/6 131/1/6
f 75/1/5 109/1/5 112/1/5 77/1/5
f 77/1/3 112/1/3 111/1/3 78/1/3
f 128/1/5 117/1/5 113/1/5 133/1/5
f 94/1/3 120/1/3 109/1/3 75/1/3
f 122/1/1 107/1/1 108/1/1 123/1/1
f 127/1/1 116/1/1 110/1/1 124/1/1
f 105/1/4 106/1/4 138/1/4 139/1/4
f 67/1/6 105/1/6 108/1/6 70/1/6
f 65/1/6 121/1/6 129/1/6 69/1/6
f 82/1/1 127/1/1 124/1/1 73/1/1
f 66/1/1 122/1/1 123/1/1 68/1/1
f 89/1/5 128/1/5 133/1/5 81/1/5
f 69/1/6 129/1/6 131/1/6 80/1/6
f 81/1/7 133/1/7 125/1/7 83/1/7
f 83/1/8 125/1/8 126/1/8 84/1/8
f 84/1/9 126/1/9 127/1/9 82/1/9
f 73/1/5 124/1/5 122/1/5 66/1/5
f 119/1/15 135/1/15 136/1/15 120/1/15
f 118/1/14 134/1/14 135/1/14 119/1/14
f 117/1/13 128/1/13 134/1/13 118/1/13
f 109/1/5 130/1/5 132/1/5 112/1/5
f 112/1/3 132/1/3 131/1/3 111/1/3
f 120/1/3 136/1/3 130/1/3 109/1/3
f 105/1/6 121/1/6 123/1/6 108/1/6
f 140/1/6 139/1/6 138/1/6 137/1/6
f 129/1/2 121/1/2 140/1/2 137/1/2
f 106/1/3 129/1/3 137/1/3 138/1/3
f 121/1/1 105/1/1 139/1/1 140/1/1
f 141/1/19 145/1/19 146/1/19 143/1/19
f 143/1/20 146/1/20 144/1/20 142/1/20
f 147/1/21 151/1/21 152/1/21 149/1/21
f 149/1/22 152/1/22 150/1/22 148/1/22
f 156/1/23 154/1/23 155/1/23 158/1/23
f 158/1/24 155/1/24 153/1/24 157/1/24
f 159/1/25 163/1/25 164/1/25 161/1/25
f 161/1/26 164/1/26 162/1/26 160/1/26
f 97/1/6 98/1/6 145/1/6 141/1/6
f 166/1/3 165/1/3 169/1/3 170/1/3
f 167/1/3 168/1/3 172/1/3 171/1/3
f 168/1/3 166/1/3 170/1/3 172/1/3
f 32/1/4 172/1/4 175/1/4 173/1/4
f 29/1/4 30/1/4 170/1/4 169/1/4
f 27/1/4 28/1/4 168/1/4 167/1/4
f 25/1/6 29/1/6 169/1/6 165/1/6
f 32/1/2 31/1/2 171/1/2 172/1/2
f 174/1/6 173/1/6 175/1/6 176/1/6
f 30/1/1 32/1/1 173/1/1 174/1/1
f 172/1/3 170/1/3 176/1/3 175/1/3
f 170/1/2 30/1/2 174/1/2 176/1/2
f 247/2/27 248/3/27 250/4/27 249/5/27
f 212/6/2 177/7/2 240/8/2 238/9/2 236/10/2 234/11/2 232/12/2 230/13/2 228/14/2 226/15/2 224/16/2 222/17/2 220/18/2 218/19/2 216/20/2 214/21/2
f 179/22/28 180/23/28 182/24/28 181/25/28
f 242/26/4 243/27/4 245/28/4 247/29/4 249/30/4 251/31/4 253/32/4 255/33/4 257/34/4 259/35/4 261/36/4 263/37/4 265/38/4 267/39/4 269/40/4 271/41/4
f 235/42/29 236/43/29 238/44/29 237/45/29
f 181/25/30 182/24/30 184/46/30 183/47/30
f 251/48/31 252/49/31 254/50/31 253/51/31
f 233/52/32 234/53/32 236/43/32 235/42/32
f 183/47/33 184/46/33 186/3/33 185/2/33
f 253/51/34 254/50/34 256/54/34 255/55/34
f 231/56/35 232/57/35 234/53/35 233/52/35
f 185/2/27 186/3/27 188/4/27 187/5/27
f 255/55/36 256/54/36 258/58/36 257/59/36
f 229/60/37 230/61/37 232/57/37 231/56/37
f 187/5/38 188/4/38 190/49/38 189/48/38
f 257/59/39 258/58/39 260/62/39 259/63/39
f 227/63/40 228/62/40 230/61/40 229/60/40
f 189/48/31 190/49/31 192/50/31 191/51/31
f 259/63/40 260/62/40 262/61/40 261/60/40
f 225/59/39 226/58/39 228/62/39 227/63/39
f 191/51/34 192/50/34 194/54/34 193/55/34
f 261/60/37 262/61/37 264/57/37 263/56/37
f 223/55/36 224/54/36 226/58/36 225/59/36
f 193/55/36 194/54/36 196/58/36 195/59/36
f 263/56/35 264/57/35 266/53/35 265/52/35
f 221/51/34 222/50/34 224/54/34 223/55/34
f 195/59/39 196/58/39 198/62/39 197/63/39
f 265/52/32 266/53/32 268/43/32 267/42/32
f 219/48/31 220/49/31 222/50/31 221/51/31
f 197/63/40 198/62/40 200/61/40 199/60/40
f 267/42/29 268/43/29 270/44/29 269/45/29
f 217/5/38 218/4/38 220/49/38 219/48/38
f 199/60/37 200/61/37 202/57/37 201/56/37
f 244/6/2 241/7/2 272/8/2 270/9/2 268/10/2 266/11/2 264/12/2 262/13/2 260/14/2 258/15/2 256/16/2 254/17/2 252/18/2 250/19/2 248/20/2 246/21/2
f 215/2/27 216/3/27 218/4/27 217/5/27
f 201/56/35 202/57/35 204/53/35 203/52/35
f 178/26/4 211/27/4 213/28/4 215/29/4 217/30/4 219/31/4 221/32/4 223/33/4 225/34/4 227/35/4 229/36/4 231/37/4 233/38/4 235/39/4 237/40/4 239/41/4
f 213/47/33 214/46/33 216/3/33 215/2/33
f 203/52/32 204/53/32 206/43/32 205/42/32
f 239/64/41 240/65/41 177/66/41 178/67/41
f 211/25/30 212/24/30 214/46/30 213/47/30
f 205/42/29 206/43/29 208/44/29 207/45/29
f 182/6/2 180/7/2 210/8/2 208/9/2 206/10/2 204/11/2 202/12/2 200/13/2 198/14/2 196/15/2 194/16/2 192/17/2 190/18/2 188/19/2 186/20/2 184/21/2
f 178/22/28 177/23/28 212/24/28 211/25/28
f 207/45/42 208/44/42 210/65/42 209/64/42
f 249/5/38 250/4/38 252/49/38 251/48/38
f 237/45/42 238/44/42 240/65/42 239/64/42
f 209/64/41 210/65/41 180/66/41 179/67/41
f 179/26/4 181/27/4 183/28/4 185/29/4 187/30/4 189/31/4 191/32/4 193/33/4 195/34/4 197/35/4 199/36/4 201/37/4 203/38/4 205/39/4 207/40/4 209/41/4
f 245/47/33 246/46/33 248/3/33 247/2/33
f 271/64/41 272/65/41 241/66/41 242/67/41
f 243/25/30 244/24/30 246/46/30 245/47/30
f 242/22/28 241/23/28 244/24/28 243/25/28
f 269/45/42 270/44/42 272/65/42 271/64/42
